<svg xmlns='http://www.w3.org/2000/svg' viewBox='0 0 10 15'>
    <path fill="red"
        d="M 7.75 0 a 2.25 2.25 0 0 1 2.25 2.25 v 10.5 a 2.25 2.25 0 0 1 -2.25 2.25 h -5.5 a 2.25 2.25 0 0 1 -2.25 -2.25 v -10.5 a 2.25 2.25 0 0 1 2.25 -2.25 h 5.5 Z M 7.75 1.5 h -5.5 a 0.75 0.75 0 0 0 -0.75 0.75 v 10.5 c 0 0.414 0.336 0.75 0.75 0.75 h 5.5 a 0.75 0.75 0 0 0 0.75 -0.75 v -10.5 a 0.75 0.75 0 0 0 -0.75 -0.75 Z M 6.249 10.5 a 0.75 0.75 0 0 1 0.002 1.5 l -2.5 0.004 a 0.75 0.75 0 0 1 -0.002 -1.5 l 2.5 -0.004 Z" />
</svg>