<svg xmlns="http://www.w3.org/2000/svg" viewBox="0 0 24 24">
    <path fill="red"
        d="M 2.75 15 A 0.75 0.75 0 0 1 2.75 13.5 H 4.5 V 11 H 2.25 A 2.25 2.25 0 0 1 0 8.75 V 2.25 A 2.25 2.25 0 0 1 2.25 0 H 13.75 A 2.25 2.25 0 0 1 16 2.25 V 8.75 A 2.25 2.25 0 0 1 13.75 11 H 11.5 V 13.5 H 13.25 A 0.75 0.75 0 0 1 13.25 15 Z M 6 11 V 13.5 H 10 V 11 Z M 13.75 1.5 H 2.25 A 0.75 0.75 0 0 0 1.5 2.25 V 8.75 A 0.75 0.75 0 0 0 2.25 9.5 H 13.75 A 0.75 0.75 0 0 0 14.5 8.75 V 2.25 A 0.75 0.75 0 0 0 13.75 1.5 Z" />
</svg>