<svg xmlns="http://www.w3.org/2000/svg" viewBox="0 0 24 24">
    <path fill="red"
        d="M 12 0 C 18.63 0 24 5.37 24 12 C 24 18.63 18.63 24 12 24 C 5.37 24 0 18.63 0 12 C 0 5.37 5.37 0 12 0 Z M 15.53 17.4 H 8.47 C 9.25 20.3 10.62 22.2 12 22.2 S 14.74 20.3 15.53 17.4 Z M 6.61 17.4 H 3.34 A 10.24 10.24 90 0 0 8.26 21.49 C 7.63 20.51 7.11 19.28 6.73 17.88 L 6.61 17.4 Z M 20.66 17.4 H 17.39 C 17 19 16.44 20.4 15.74 21.49 A 10.23 10.23 90 0 0 20.43 17.74 L 20.66 17.4 Z M 6.11 9.6 H 2.08 L 2.08 9.62 A 10.23 10.23 90 0 0 1.8 12 C 1.8 13.27 2.03 14.48 2.45 15.6 H 6.26 A 25.02 25.02 90 0 1 6.11 9.6 Z M 16.08 9.6 H 7.92 A 22.76 22.76 90 0 0 8.09 15.6 H 15.91 A 22.77 22.77 90 0 0 16.08 9.6 Z M 21.92 9.6 H 17.89 C 17.96 10.38 18 11.18 18 12 A 24.36 24.36 90 0 1 17.74 15.6 H 21.55 A 10.18 10.18 90 0 0 22.2 12 C 22.2 11.17 22.1 10.37 21.92 9.6 Z M 8.26 2.51 L 8.23 2.52 A 10.24 10.24 90 0 0 2.7 7.8 H 6.36 C 6.73 5.7 7.39 3.87 8.26 2.51 Z M 12 1.8 L 11.86 1.8 C 10.34 1.94 8.88 4.35 8.2 7.8 H 15.81 C 15.13 4.36 13.67 1.96 12.15 1.81 L 12 1.8 Z M 15.74 2.51 L 15.87 2.72 C 16.68 4.05 17.29 5.8 17.64 7.8 H 21.3 A 10.24 10.24 90 0 0 16.09 2.65 L 15.74 2.51 Z" />
</svg>