<svg width="138" height="138" viewBox="0 0 138 138" xmlns="http://www.w3.org/2000/svg">
   <path fill='tan'
      d="M 60 0 A 60 60 0 0 0 0 60 A 60 60 0 0 0 60 120 A 60 60 0 0 0 85.9395 114.0469 A 20 20 0 0 1 80 100 A 20 20 0 0 1 100 80 A 20 20 0 0 1 114.0977 85.8379 A 60 60 0 0 0 120 60 A 60 60 0 0 0 60 0 Z" />
   <path fill='red'
      d="m 100 88 c -6.656 0 -12 5.344 -12 12 c 0 6.656 5.344 12 12 12 c 6.656 0 12 -5.344 12 -12 c 0 -6.656 -5.344 -12 -12 -12 z m -9 12 c 0 -4.969 4.031 -9 9 -9 c 4.969 0 9 4.031 9 9 c 0 4.969 -4.031 9 -9 9 c -4.969 0 -9 -4.031 -9 -9 z m 3 0 c 0 -0.844 0.656 -1.5 1.5 -1.5 l 9 0 c 0.844 0 1.5 0.656 1.5 1.5 c 0 0.844 -0.656 1.5 -1.5 1.5 l -9 0 c -0.844 0 -1.5 -0.656 -1.5 -1.5 z m 0 0" />
</svg>