<svg width="138" height="138" viewBox="0 0 138 138" xmlns="http://www.w3.org/2000/svg">
   <path fill='tan'
      d="M 60 0 A 60 60 0 0 0 0 60 A 60 60 0 0 0 60 120 A 60 60 0 0 0 85.9395 114.0469 A 20 20 0 0 1 80 100 A 20 20 0 0 1 100 80 A 20 20 0 0 1 114.0977 85.8379 A 60 60 0 0 0 120 60 A 60 60 0 0 0 60 0 Z" />
   <path fill='red'
      d="m 105.086 102.88 c -1.658 2.87 -5.328 3.854 -8.198 2.198 a 5.978 5.978 90 0 1 -1.942 -1.79 a 0.449 0.449 90 0 1 0.218 -0.679 c 2.261 -0.809 3.473 -1.747 4.174 -3.086 c 0.739 -1.411 0.931 -2.957 0.415 -5.078 a 0.449 0.449 90 0 1 0.461 -0.557 a 5.976 5.976 90 0 1 2.674 0.797 c 2.87 1.655 3.854 5.325 2.198 8.195 z m -5.086 -11.88 c -4.968 0 -9 4.032 -9 9 c 0 4.968 4.032 9 9 9 c 4.968 0 9 -4.032 9 -9 c 0 -4.968 -4.032 -9 -9 -9 z m -12 9 c 0 -6.655 5.345 -12 12 -12 c 6.655 0 12 5.345 12 12 c 0 6.655 -5.345 12 -12 12 c -6.655 0 -12 -5.345 -12 -12 z m 0 0" />
</svg>