<svg width="138" height="138" viewBox="0 0 138 138" xmlns="http://www.w3.org/2000/svg">
   <path fill='tan'
      d="M 60 0 A 60 60 0 0 0 0 60 A 60 60 0 0 0 60 120 A 60 60 0 0 0 85.9395 114.0469 A 20 20 0 0 1 80 100 A 20 20 0 0 1 100 80 A 20 20 0 0 1 114.0977 85.8379 A 60 60 0 0 0 120 60 A 60 60 0 0 0 60 0 Z" />
   <path fill='red'
      d="m 104.0313 95.9687 c 0.6562 0.5625 0.6562 1.5 0 2.0625 l -1.875 1.9687 l 1.875 1.9687 c 0.6562 0.5625 0.6562 1.5 0 2.0625 c -0.5625 0.6562 -1.5 0.6562 -2.0625 0 l -1.9687 -1.875 l -1.9687 1.875 c -0.5625 0.6562 -1.5 0.6562 -2.0625 0 c -0.6562 -0.5625 -0.6562 -1.5 0 -2.0625 l 1.875 -1.9687 l -1.875 -1.9687 c -0.6562 -0.5625 -0.6562 -1.5 0 -2.0625 c 0.5625 -0.6562 1.5 -0.6562 2.0625 0 l 1.9687 1.875 l 1.9687 -1.875 c 0.5625 -0.6562 1.5 -0.6562 2.0625 0 z m -16.0313 4.0313 c 0 -6.6563 5.3437 -12 12 -12 c 6.6563 0 12 5.3437 12 12 c 0 6.6563 -5.3437 12 -12 12 c -6.6563 0 -12 -5.3437 -12 -12 z m 12 -9 c -4.9687 0 -9 4.0313 -9 9 c 0 4.9687 4.0313 9 9 9 c 4.9687 0 9 -4.0313 9 -9 c 0 -4.9687 -4.0313 -9 -9 -9 z" />
</svg>