<svg width="138" height="138" viewBox="0 0 138 138" xmlns="http://www.w3.org/2000/svg">
   <path fill='tan'
      d="M 60 0 A 60 60 0 0 0 0 60 A 60 60 0 0 0 60 120 A 60 60 0 0 0 81.965 115.682 C 80.733 113.972 80 111.877 80 109.6 V 78.4 C 80 72.639 84.639 68 90.4 68 H 109.6 C 113.344 68 116.605 69.967 118.436 72.92 A 60 60 0 0 0 120 60 A 60 60 0 0 0 60 0 Z" />
   <path fill='red'
      d="m 106.6 76 a 5.4 5.4 90 0 1 5.4 5.4 v 25.2 a 5.4 5.4 90 0 1 -5.4 5.4 h -13.2 a 5.4 5.4 90 0 1 -5.4 -5.4 v -25.2 a 5.4 5.4 90 0 1 5.4 -5.4 h 13.2 z m 0 3.6 h -13.2 a 1.8 1.8 90 0 0 -1.8 1.8 v 25.2 c 0 0.994 0.806 1.8 1.8 1.8 h 13.2 a 1.8 1.8 90 0 0 1.8 -1.8 v -25.2 a 1.8 1.8 90 0 0 -1.8 -1.8 z m -3.602 21.6 a 1.8 1.8 90 0 1 0.005 3.6 l -6 0.01 a 1.8 1.8 90 0 1 -0.005 -3.6 l 6 -0.01 z" />
</svg>