<?xml version="1.0" standalone="no"?>
<!DOCTYPE svg PUBLIC "-//W3C//DTD SVG 20010904//EN"
 "http://www.w3.org/TR/2001/REC-SVG-20010904/DTD/svg10.dtd">
<svg version="1.0" xmlns="http://www.w3.org/2000/svg"
 width="512.000000pt" height="512.000000pt" viewBox="0 0 512.000000 512.000000"
 preserveAspectRatio="xMidYMid meet">

<g transform="translate(0.000000,512.000000) scale(0.100000,-0.100000)"
fill="#000000" stroke="none">
<path d="M2937 4779 c-21 -11 -47 -34 -57 -52 -36 -58 -35 -86 8 -218 80 -247
108 -439 99 -684 -8 -224 -42 -401 -114 -595 -298 -804 -1085 -1322 -1953
-1286 -87 3 -204 15 -265 27 -180 34 -214 35 -254 7 -49 -33 -72 -69 -78 -120
-4 -37 3 -62 41 -153 116 -270 290 -521 512 -735 343 -331 760 -539 1245 -621
181 -31 523 -33 704 -5 490 76 926 287 1269 616 372 356 604 802 683 1310 24
158 24 489 -1 650 -37 237 -104 451 -211 665 -285 578 -805 1007 -1439 1190
-105 30 -139 31 -189 4z m464 -454 c236 -118 462 -298 634 -505 282 -339 445
-789 445 -1227 0 -987 -756 -1821 -1756 -1938 -716 -84 -1417 217 -1843 792
-42 56 -86 119 -97 140 l-22 38 232 0 c171 0 261 5 346 18 1054 163 1847 981
1960 2019 20 191 10 438 -25 632 -8 43 -15 82 -15 87 0 11 29 0 141 -56z"/>
</g>
</svg>
