<?xml version="1.0" standalone="no"?>
<!DOCTYPE svg PUBLIC "-//W3C//DTD SVG 20010904//EN"
 "http://www.w3.org/TR/2001/REC-SVG-20010904/DTD/svg10.dtd">
<svg version="1.0" xmlns="http://www.w3.org/2000/svg"
 width="512.000000pt" height="512.000000pt" viewBox="0 0 512.000000 512.000000"
 preserveAspectRatio="xMidYMid meet">

<g transform="translate(0.000000,512.000000) scale(0.100000,-0.100000)"
fill="#000000" stroke="none">
<path d="M1210 4937 c-41 -13 -97 -36 -125 -52 -75 -43 -185 -159 -222 -235
-67 -135 -63 10 -63 -2077 0 -1326 3 -1908 11 -1945 18 -89 81 -206 145 -272
73 -74 142 -118 241 -153 l78 -28 1247 -3 c1393 -3 1325 -6 1474 68 63 31 96
56 150 112 82 87 118 150 144 254 20 76 20 117 20 1960 0 1320 -3 1899 -11
1936 -16 76 -80 205 -134 265 -54 61 -156 131 -240 164 l-60 24 -1290 2 -1290
2 -75 -22z m2616 -294 c32 -11 66 -34 101 -68 91 -92 84 91 81 -2025 l-3
-1865 -21 -46 c-27 -58 -79 -110 -140 -140 l-49 -24 -1240 0 -1240 0 -57 28
c-65 32 -101 70 -135 143 l-23 51 2 1884 c3 1815 4 1885 22 1919 36 69 107
130 176 151 14 4 577 8 1251 8 1122 1 1230 0 1275 -16z"/>
<path d="M2185 1111 c-34 -14 -74 -62 -87 -102 -22 -76 35 -170 114 -184 18
-3 185 -5 370 -3 324 3 338 4 365 24 42 32 66 80 65 132 0 51 -21 85 -72 120
-33 22 -36 22 -384 21 -193 0 -360 -4 -371 -8z"/>
</g>
</svg>
