<?xml version="1.0" standalone="no"?>
<!DOCTYPE svg PUBLIC "-//W3C//DTD SVG 20010904//EN"
 "http://www.w3.org/TR/2001/REC-SVG-20010904/DTD/svg10.dtd">
<svg version="1.0" xmlns="http://www.w3.org/2000/svg"
 width="500.000000pt" height="500.000000pt" viewBox="0 0 500.000000 500.000000"
 preserveAspectRatio="xMidYMid meet">

<g transform="translate(0.000000,500.000000) scale(0.100000,-0.100000)"
fill="#000000" stroke="none">
<path d="M2220 4989 c-159 -18 -292 -47 -480 -107 -318 -100 -519 -205 -764
-396 -132 -103 -338 -294 -359 -332 -7 -12 -50 -68 -96 -125 -226 -277 -368
-584 -467 -1012 -90 -388 -68 -858 59 -1262 106 -337 218 -551 408 -784 46
-57 89 -113 96 -125 43 -78 412 -387 589 -494 296 -178 672 -303 1026 -342
124 -13 381 -13 523 0 345 32 739 162 1039 342 178 107 514 388 580 484 11 18
59 78 105 135 196 241 324 494 426 841 71 244 100 488 92 773 -7 266 -53 506
-143 752 -20 54 -49 133 -65 177 -56 153 -173 347 -310 515 -46 57 -94 117
-105 135 -67 98 -401 376 -582 485 -279 168 -693 305 -1024 341 -113 12 -438
11 -548 -1z m720 -402 c85 -19 200 -51 255 -72 88 -33 294 -122 335 -145 308
-174 604 -459 786 -755 98 -159 208 -425 258 -627 73 -294 74 -675 2 -968 -31
-127 -97 -311 -159 -445 -101 -217 -225 -391 -413 -579 -177 -178 -333 -292
-527 -388 -393 -194 -723 -264 -1127 -238 -90 6 -180 15 -200 20 -19 5 -78 19
-130 31 -98 23 -262 76 -340 111 -94 42 -262 129 -318 164 -233 149 -487 397
-634 620 -80 121 -102 158 -114 189 -7 17 -32 75 -57 130 -126 282 -187 563
-187 865 0 301 61 584 187 865 25 55 50 114 57 130 12 31 34 68 114 189 153
232 424 493 662 638 36 21 72 43 80 48 35 22 253 115 350 150 108 39 250 73
400 96 58 9 160 12 325 9 230 -3 246 -5 395 -38z"/>
<path d="M2319 3986 c-2 -2 -55 -12 -118 -21 -172 -25 -333 -89 -509 -202
-145 -92 -311 -250 -412 -392 -71 -100 -169 -288 -204 -392 -60 -178 -81 -489
-50 -724 41 -309 184 -586 425 -822 131 -129 213 -188 381 -277 261 -138 592
-179 969 -122 201 30 426 132 619 281 65 51 225 212 273 275 144 191 244 413
273 609 58 378 15 709 -125 974 -89 168 -159 263 -292 394 -136 134 -224 196
-392 280 -202 101 -402 143 -677 143 -86 0 -159 -2 -161 -4z m377 -381 c114
-24 289 -81 342 -111 159 -91 364 -295 456 -456 30 -52 87 -228 111 -342 20
-98 20 -294 0 -392 -24 -114 -81 -290 -111 -342 -92 -161 -297 -365 -456 -456
-53 -30 -228 -87 -342 -111 -98 -20 -294 -20 -392 0 -114 24 -289 81 -342 111
-111 63 -286 219 -360 319 -20 28 -44 58 -53 68 -23 25 -78 136 -89 178 -5 19
-21 72 -34 117 -35 114 -46 188 -46 312 0 124 11 198 46 312 13 45 29 98 33
116 45 169 298 452 506 567 60 33 214 83 335 109 89 20 302 20 396 1z"/>
</g>
</svg>
