<svg width="30" height="30" viewBox="0 0 30 30" xmlns="http://www.w3.org/2000/svg">
   <path fill='tan'
      d="M 12 0 A 12 12 0 0 0 0 12 A 12 12 0 0 0 12 24 A 12 12 0 0 0 14.115 23.791 A 7 7 0 0 1 13 20 A 7 7 0 0 1 20 13 A 7 7 0 0 1 23.789 14.117 A 12 12 0 0 0 24 12 A 12 12 0 0 0 12 0 Z" />
   <path fill='red'
      d="m 20 16 c -2.219 0 -4 1.781 -4 4 c 0 2.219 1.781 4 4 4 c 2.219 0 4 -1.781 4 -4 c 0 -2.219 -1.781 -4 -4 -4 z m -3 4 c 0 -1.656 1.344 -3 3 -3 c 1.656 0 3 1.344 3 3 c 0 1.656 -1.344 3 -3 3 c -1.656 0 -3 -1.344 -3 -3 z m 1 0 c 0 -0.281 0.219 -0.5 0.5 -0.5 l 3 0 c 0.281 0 0.5 0.219 0.5 0.5 c 0 0.281 -0.219 0.5 -0.5 0.5 l -3 0 c -0.281 0 -0.5 -0.219 -0.5 -0.5 z m 0 0" />
</svg>