<svg width="30" height="30" viewBox="0 0 30 30" xmlns="http://www.w3.org/2000/svg">
   <path fill='tan'
      d="M 12 0 A 12 12 0 0 0 0 12 A 12 12 0 0 0 12 24 A 12 12 0 0 0 14.115 23.791 A 7 7 0 0 1 13 20 A 7 7 0 0 1 20 13 A 7 7 0 0 1 23.789 14.117 A 12 12 0 0 0 24 12 A 12 12 0 0 0 12 0 Z" />
   <path fill='red'
      d="m 21.695 20.96 c -0.553 0.957 -1.776 1.285 -2.733 0.733 a 1.993 1.993 90 0 1 -0.647 -0.597 a 0.15 0.15 90 0 1 0.073 -0.226 c 0.754 -0.27 1.158 -0.582 1.391 -1.029 c 0.246 -0.47 0.31 -0.986 0.138 -1.693 a 0.15 0.15 90 0 1 0.154 -0.186 a 1.992 1.992 90 0 1 0.891 0.266 c 0.957 0.552 1.285 1.775 0.733 2.732 z m -1.695 -3.96 c -1.656 0 -3 1.344 -3 3 c 0 1.656 1.344 3 3 3 c 1.656 0 3 -1.344 3 -3 c 0 -1.656 -1.344 -3 -3 -3 z m -4 3 c 0 -2.218 1.782 -4 4 -4 c 2.218 0 4 1.782 4 4 c 0 2.218 -1.782 4 -4 4 c -2.218 0 -4 -1.782 -4 -4 z" />
</svg>