<svg width="40" height="40" viewBox="0 0 40 40" xmlns="http://www.w3.org/2000/svg">
   <path fill='tan'
      d="M 12 0 A 12 12 0 0 0 0 12 A 12 12 0 0 0 12 24 A 12 12 0 0 0 13.156 23.93 C 13.056 23.57 13 23.193 13 22.801 V 13.199 C 13 10.872 14.872 9 17.199 9 H 22.801 C 23.088 9 23.368 9.029 23.639 9.084 A 12 12 0 0 0 12 0 Z" />
   <path fill='red'
      d="m 22.2 12 a 1.8 1.8 90 0 1 1.8 1.8 v 8.4 a 1.8 1.8 90 0 1 -1.8 1.8 h -4.4 a 1.8 1.8 90 0 1 -1.8 -1.8 v -8.4 a 1.8 1.8 90 0 1 1.8 -1.8 h 4.4 z m 0 1.2 h -4.4 a 0.6 0.6 90 0 0 -0.6 0.6 v 8.4 c 0 0.331 0.269 0.6 0.6 0.6 h 4.4 a 0.6 0.6 90 0 0 0.6 -0.6 v -8.4 a 0.6 0.6 90 0 0 -0.6 -0.6 z m -1.201 7.2 a 0.6 0.6 90 0 1 0.002 1.2 l -2 0.003 a 0.6 0.6 90 0 1 -0.002 -1.2 l 2 -0.003 z" />
</svg>