<svg width="40" height="40" viewBox="0 0 40 40" xmlns="http://www.w3.org/2000/svg">
   <path fill='tan'
      d="M 16 0 A 16 16 0 0 0 0 16 A 16 16 0 0 0 16 32 A 16 16 0 0 0 20.316 31.385 A 8 8 0 0 1 19 27 A 8 8 0 0 1 27 19 A 8 8 0 0 1 31.385 20.314 A 16 16 0 0 0 32 16 A 16 16 0 0 0 16 0 z" />
   <path fill='red'
      d="m 29.119 28.2 c -0.691 1.196 -2.22 1.606 -3.416 0.916 a 2.491 2.491 90 0 1 -0.809 -0.746 a 0.187 0.187 90 0 1 0.091 -0.283 c 0.942 -0.337 1.447 -0.728 1.739 -1.286 c 0.308 -0.588 0.388 -1.232 0.173 -2.116 a 0.187 0.187 90 0 1 0.192 -0.232 a 2.49 2.49 90 0 1 1.114 0.332 c 1.196 0.69 1.606 2.219 0.916 3.415 z m -2.119 -4.95 c -2.07 0 -3.75 1.68 -3.75 3.75 c 0 2.07 1.68 3.75 3.75 3.75 c 2.07 0 3.75 -1.68 3.75 -3.75 c 0 -2.07 -1.68 -3.75 -3.75 -3.75 z m -5 3.75 c 0 -2.773 2.227 -5 5 -5 c 2.773 0 5 2.227 5 5 c 0 2.773 -2.227 5 -5 5 c -2.773 0 -5 -2.227 -5 -5 z m 0 0" />
</svg>