<svg width="40" height="40" viewBox="0 0 40 40" xmlns="http://www.w3.org/2000/svg">
   <path fill='tan'
      d="M 16 0 A 16 16 0 0 0 0 16 A 16 16 0 0 0 16 32 A 16 16 0 0 0 19.094 31.678 C 19.034 31.395 19 31.102 19 30.801 L 19 18.199 C 19 15.872 20.872 14 23.199 14 L 30.801 14 C 31.179 14 31.542 14.054 31.891 14.146 A 16 16 0 0 0 16 0 Z" />
   <path fill='red'
      d="m 29.75 17 a 2.25 2.25 0 0 1 2.25 2.25 v 10.5 a 2.25 2.25 0 0 1 -2.25 2.25 h -5.5 a 2.25 2.25 0 0 1 -2.25 -2.25 v -10.5 a 2.25 2.25 0 0 1 2.25 -2.25 h 5.5 z m 0 1.5 h -5.5 a 0.75 0.75 0 0 0 -0.75 0.75 v 10.5 c 0 0.414 0.336 0.75 0.75 0.75 h 5.5 a 0.75 0.75 0 0 0 0.75 -0.75 v -10.5 a 0.75 0.75 0 0 0 -0.75 -0.75 z m -1.501 9 a 0.75 0.75 0 0 1 0.002 1.5 l -2.5 0.004 a 0.75 0.75 0 0 1 -0.002 -1.5 l 2.5 -0.004 z" />
</svg>