<svg width="40" height="40" viewBox="0 0 40 40" xmlns="http://www.w3.org/2000/svg">
   <path fill='tan'
      d="M 16 0 A 16 16 0 0 0 0 16 A 16 16 0 0 0 16 32 A 16 16 0 0 0 20.316 31.385 A 8 8 0 0 1 19 27 A 8 8 0 0 1 27 19 A 8 8 0 0 1 31.385 20.314 A 16 16 0 0 0 32 16 A 16 16 0 0 0 16 0 z" />
   <path fill='red'
      d="m 27 23.25 c -2.07 0 -3.75 1.68 -3.75 3.75 c 0 2.07 1.68 3.75 3.75 3.75 c 2.07 0 3.75 -1.68 3.75 -3.75 c 0 -2.07 -1.68 -3.75 -3.75 -3.75 z m -5 3.75 c 0 -2.773 2.227 -5 5 -5 c 2.773 0 5 2.227 5 5 c 0 2.773 -2.227 5 -5 5 c -2.773 0 -5 -2.227 -5 -5 z m 0 0 m 7.461 -0.312 l -3.125 -1.875 c -0.352 -0.196 -0.82 0.078 -0.82 0.507 l 0 3.36 c 0 0.429 0.468 0.703 0.82 0.508 l 3.125 -1.875 c 0.234 -0.118 0.234 -0.508 0 -0.625 z" />
</svg>