<svg width="92" height="92" viewBox="0 0 92 92" xmlns="http://www.w3.org/2000/svg">
   <path fill='tan'
      d="M 40 0 A 40 40 0 0 0 0 40 A 40 40 0 0 0 40 80 A 40 40 0 0 0 56.785156 76.300781 A 14 14 0 0 1 54 68 A 14 14 0 0 1 68 54 A 14 14 0 0 1 76.316406 56.748047 A 40 40 0 0 0 80 40 A 40 40 0 0 0 40 0 z" />
   <path fill='red'
      d="m 71.39 69.92 c -1.106 1.914 -3.552 2.57 -5.466 1.466 a 3.986 3.986 90 0 1 -1.294 -1.194 a 0.299 0.299 90 0 1 0.146 -0.453 c 1.507 -0.539 2.315 -1.165 2.782 -2.058 c 0.493 -0.941 0.621 -1.971 0.277 -3.386 a 0.299 0.299 90 0 1 0.307 -0.371 a 3.984 3.984 90 0 1 1.782 0.531 c 1.914 1.105 2.57 3.551 1.466 5.465 z m -3.39 -7.92 c -3.312 0 -6 2.688 -6 6 c 0 3.312 2.688 6 6 6 c 3.312 0 6 -2.688 6 -6 c 0 -3.312 -2.688 -6 -6 -6 z m -8 6 c 0 -4.437 3.563 -8 8 -8 c 4.437 0 8 3.563 8 8 c 0 4.437 -3.563 8 -8 8 c -4.437 0 -8 -3.563 -8 -8 z m 0 0" />
</svg>