<svg width="92" height="92" viewBox="0 0 92 92" xmlns="http://www.w3.org/2000/svg">
   <path fill='tan'
      d="M 40 0 A 40 40 0 0 0 0 40 A 40 40 0 0 0 40 80 A 40 40 0 0 0 54.418 77.205 C 54.152 76.452 54 75.647 54 74.801 V 53.199 C 54 49.21 57.21 46 61.199 46 H 74.801 C 76.463 46 77.984 46.563 79.199 47.502 A 40 40 0 0 0 80 40 A 40 40 0 0 0 40 0 Z" />
   <path fill='red'
      d="m 72.4 52 a 3.6 3.6 90 0 1 3.6 3.6 v 16.8 a 3.6 3.6 90 0 1 -3.6 3.6 h -8.8 a 3.6 3.6 90 0 1 -3.6 -3.6 v -16.8 a 3.6 3.6 90 0 1 3.6 -3.6 h 8.8 z m 0 2.4 h -8.8 a 1.2 1.2 90 0 0 -1.2 1.2 v 16.8 c 0 0.662 0.538 1.2 1.2 1.2 h 8.8 a 1.2 1.2 90 0 0 1.2 -1.2 v -16.8 a 1.2 1.2 90 0 0 -1.2 -1.2 z m -2.402 14.4 a 1.2 1.2 90 0 1 0.003 2.4 l -4 0.006 a 1.2 1.2 90 0 1 -0.003 -2.4 l 4 -0.006 z" />
</svg>