<svg width="92" height="92" viewBox="0 0 92 92" xmlns="http://www.w3.org/2000/svg">
   <path fill='tan'
      d="M 40 0 A 40 40 0 0 0 0 40 A 40 40 0 0 0 40 80 A 40 40 0 0 0 56.785156 76.300781 A 14 14 0 0 1 54 68 A 14 14 0 0 1 68 54 A 14 14 0 0 1 76.316406 56.748047 A 40 40 0 0 0 80 40 A 40 40 0 0 0 40 0 z" />
   <path fill='red'
      d="m 68 62 c -3.312 0 -6 2.688 -6 6 c 0 3.312 2.688 6 6 6 c 3.312 0 6 -2.688 6 -6 c 0 -3.312 -2.688 -6 -6 -6 z m -8 6 c 0 -4.438 3.562 -8 8 -8 c 4.438 0 8 3.562 8 8 c 0 4.438 -3.562 8 -8 8 c -4.438 0 -8 -3.562 -8 -8 z m 0 0 m 11.938 -0.5 l -5 -3 c -0.563 -0.312 -1.313 0.125 -1.313 0.812 l 0 5.376 c 0 0.687 0.75 1.124 1.313 0.812 l 5 -3 c 0.374 -0.188 0.374 -0.812 0 -1 z" />
</svg>